<!DOCTYPE svg PUBLIC "-//W3C//DTD SVG 1.1//EN" "http://www.w3.org/Graphics/SVG/1.1/DTD/svg11.dtd">

<!-- Uploaded to: SVG Repo, www.svgrepo.com, Transformed by: SVG Repo Mixer Tools -->
<svg width="24px" height="24px" viewBox="0 0 24 24" xmlns="http://www.w3.org/2000/svg" id="sort-descending" class="icon glyph" fill="#000000">

<g id="SVGRepo_bgCarrier" stroke-width="0"/>

<g id="SVGRepo_tracerCarrier" stroke-linecap="round" stroke-linejoin="round"/>

<g id="SVGRepo_iconCarrier">

<path d="M10,9a1,1,0,0,1-.71-.29L6,5.41,2.71,8.71A1,1,0,0,1,1.29,7.29l4-4a1,1,0,0,1,1.42,0l4,4a1,1,0,0,1,0,1.42A1,1,0,0,1,10,9Z" style="fill:#0085FF"/>

<path d="M6,20a1,1,0,0,1-1-1V4A1,1,0,0,1,7,4V19A1,1,0,0,1,6,20Z" style="fill:#0085FF"/>

<path d="M20,8H15a1,1,0,0,1,0-2h5a1,1,0,0,1,0,2Z" style="fill:#0085FF"/>

<path d="M20,13H13a1,1,0,0,1,0-2h7a1,1,0,0,1,0,2Z" style="fill:#0085FF"/>

<path d="M20,18H10a1,1,0,0,1,0-2H20a1,1,0,0,1,0,2Z" style="fill:#0085FF"/>

</g>

</svg>